<?xml version="1.0" standalone="no"?>
<!DOCTYPE svg PUBLIC "-//W3C//DTD SVG 20010904//EN"
 "http://www.w3.org/TR/2001/REC-SVG-20010904/DTD/svg10.dtd">
<svg version="1.0" xmlns="http://www.w3.org/2000/svg"
 width="500.000000pt" height="500.000000pt" viewBox="0 0 500.000000 500.000000"
 preserveAspectRatio="xMidYMid meet">

<g transform="translate(0.000000,500.000000) scale(0.100000,-0.100000)"
fill="#000000" stroke="none">
<path d="M2190 4975 c-857 -111 -1600 -657 -1956 -1435 -151 -332 -225 -668
-225 -1035 -1 -574 184 -1108 539 -1560 88 -112 327 -343 447 -432 230 -171
485 -304 740 -386 256 -82 406 -106 691 -114 453 -12 796 63 1189 261 760 383
1254 1083 1361 1926 16 133 19 457 4 580 -69 568 -311 1070 -710 1471 -147
148 -217 206 -385 321 -265 181 -604 321 -910 378 -222 40 -578 52 -785 25z
m1120 -1300 c0 -9 -1314 -2090 -1325 -2097 -5 -4 -79 -8 -164 -8 -122 0 -152
3 -148 13 4 10 1236 1969 1305 2075 14 21 19 22 173 22 88 0 159 -2 159 -5z
m-1755 -495 l84 -105 -22 -18 c-12 -10 -136 -99 -277 -196 -140 -98 -290 -202
-332 -232 -42 -30 -85 -59 -95 -66 -16 -10 11 -40 246 -276 145 -146 262 -269
260 -275 -2 -6 -53 -52 -114 -102 l-109 -90 -364 362 c-200 200 -367 370 -372
379 -7 13 16 34 118 106 70 50 294 211 497 357 204 146 376 265 383 263 7 -1
50 -49 97 -107z m2640 -260 c221 -221 365 -373 360 -378 -19 -17 -993 -712
-998 -712 -7 0 -157 187 -163 204 -3 9 111 95 343 259 191 135 357 252 368
261 19 14 9 26 -245 280 -171 172 -261 269 -255 275 22 22 210 180 215 180 3
1 172 -165 375 -369z"/>
</g>
</svg>
